<svg width="351" height="189" viewBox="0 0 351 189" fill="none" xmlns="http://www.w3.org/2000/svg">
<path fill-rule="evenodd" clip-rule="evenodd" d="M96.9035 93.3419C91.7644 95.5862 86.0291 97.7586 80.7936 99.364C77.0215 100.351 73.2786 101.432 69.5655 102.607C71.5701 98.7148 73.4597 95.1655 75.5856 91.6162C76.2942 91.3944 76.7508 91.1983 77.4752 90.9507C80.3501 89.9682 81.5528 89.4257 84.2109 88.2463C91.4415 85.0382 95.2055 82.5517 100.809 77.5919C101.135 77.5919 101.297 77.4377 101.297 77.1287C114.515 66.7096 123.708 53.739 128.879 38.2169C133.817 20.9091 126.902 12.262 108.132 12.2757C104.873 12.4562 101.618 12.6878 98.3681 12.9706C75.6946 17.9903 56.8998 28.8764 41.9835 45.6287C39.9141 48.781 37.9614 52.0236 36.1253 55.3566C34.5683 59.5355 34.5683 63.7046 36.1253 67.864C38.5109 69.9986 41.2773 71.3883 44.4244 72.0331C44.5558 73.3209 43.9862 74.3243 42.7157 75.0441C35.7832 76.2481 30.0064 74.3182 25.3854 69.2537C22.4195 64.8645 21.4431 60.0779 22.4564 54.8934C25.4166 45.3358 30.6238 37.1519 38.0781 30.3419C60.5142 10.1639 87.2825 1.13085 118.383 3.24265C137.29 5.98917 145.67 16.412 143.525 34.511C139.658 55.2139 128.999 71.9678 111.549 84.7721C106.814 88.2463 103.93 90.2733 96.9035 93.3419Z" fill="#4FAAFF"/>
<path opacity="0.913" fill-rule="evenodd" clip-rule="evenodd" d="M101.297 77.1287C100.971 77.1287 100.809 77.2829 100.809 77.5919C94.954 82.9648 92.2655 84.5176 84.2106 88.2463C87.0542 79.6098 89.7392 70.9626 92.2655 62.3052C86.7945 72.0725 81.0172 81.9276 75.5853 91.6162C75.3491 92.0599 74.825 92.9097 73.4118 95.5862C72.2647 97.7586 70.5127 100.7 69.5652 102.607C65.3254 111.139 61.0128 119.632 56.6285 128.085C50.6923 138.734 44.5088 149.234 38.0777 159.585C34.1876 164.515 30.2822 169.456 26.3615 174.408C21.7421 178.801 18.1876 182.345 10.9838 185.757C8.29159 186.71 4.04494 187.427 1.20448 187.092C0.334246 186.597 0.0901569 185.902 0.47221 185.007C9.07991 179.31 17.8829 171.953 23.9206 163.754C27.0124 159.121 30.1042 154.489 33.196 149.857C41.4369 135.448 49.6544 121.088 57.849 106.776C60.2943 103.16 61.9094 99.5944 63.7071 95.6581C66.3486 91.1087 68.871 86.4763 71.2738 81.761C82.2017 63.649 93.5113 45.7374 105.202 28.0257C107.188 25.3968 109.303 22.849 111.549 20.3824C115.104 18.4363 118.115 18.9768 120.58 22.0037C120.905 23.239 120.905 24.4743 120.58 25.7096C113.61 40.6165 107.834 55.8259 103.25 71.3382C102.551 73.2496 101.9 75.1799 101.297 77.1287Z" fill="#9247FB"/>
<path opacity="0.999" fill-rule="evenodd" clip-rule="evenodd" d="M243.357 40.0699C247.659 39.9078 250.1 41.838 250.68 45.8603C248.626 52.9418 246.185 59.8903 243.357 66.7059C249.696 66.3135 256.043 66.0046 262.396 65.7794C266.259 66.4131 267.479 68.4977 266.057 72.0331C264.631 73.697 262.923 75.0094 260.931 75.9706C253.341 77.3395 245.693 78.3433 237.987 78.9816C232.751 92.2626 227.463 105.542 222.121 118.82C220.657 123.298 219.192 127.776 217.728 132.254C217.402 133.18 217.402 134.107 217.728 135.033C217.93 135.245 218.174 135.4 218.46 135.496C221.201 133.592 223.723 131.43 226.027 129.011C229.634 124.507 233.051 119.875 236.278 115.114C239.854 107.1 243.434 99.0708 247.018 91.0257C249.163 86.5713 252.662 85.1047 257.514 86.625C258.634 87.8039 259.286 89.1936 259.467 90.7941C255.416 99.7948 251.429 108.828 247.506 117.893C245.39 123.223 243.519 128.627 241.892 134.107C242.716 134.601 243.53 134.524 244.333 133.875C248.072 130.55 251.408 126.921 254.341 122.989C256.139 117.717 258.092 112.467 260.199 107.239C263.173 101.332 267.241 96.2367 272.403 91.9522C275.107 86.6023 279.501 83.3597 285.584 82.2243C290.957 82.845 294.374 85.6244 295.836 90.5625C296.721 93.5948 297.128 96.6832 297.056 99.8272C298.171 99.7772 299.147 99.3913 299.986 98.6691C305.054 94.6367 309.204 89.927 312.434 84.5405C316.025 82.5342 319.279 82.9974 322.198 85.9302C323.009 88.4284 322.847 90.8993 321.709 93.3419C321.111 94.941 320.379 96.485 319.513 97.9743C319.675 98.1285 319.838 98.2833 320.001 98.4375C324.972 92.7161 330.505 87.5431 336.599 82.9191C346.853 81.075 350.514 85.0125 347.583 94.7316C343.062 105.593 338.831 116.556 334.89 127.621C334.565 129.474 334.565 131.327 334.89 133.18C335.955 134.498 337.012 135.81 338.063 137.118C335.003 141.43 330.934 142.665 325.859 140.824C323.83 138.831 323.016 136.437 323.418 133.643C323.615 129.696 324.348 125.836 325.615 122.063C328.12 114.776 330.724 107.518 333.426 100.29C333.751 99.364 333.751 98.4375 333.426 97.511C325.187 104.807 318.352 113.146 312.922 122.526C310.088 128.895 307.159 135.226 304.135 141.518C300.408 144.654 296.828 144.499 293.395 141.055C293.069 139.82 293.069 138.585 293.395 137.349C297.508 125.86 301.821 114.588 306.332 103.533C303.169 106.694 299.67 109.473 295.836 111.871C292.751 122.907 286.974 132.403 278.506 140.36C275.241 143.183 271.417 144.959 267.033 145.688C260.614 144.919 256.302 141.677 254.097 135.96C250.6 140.244 246.207 143.409 240.916 145.456C236.956 147.011 233.783 146.161 231.396 142.908C230.471 140.203 229.983 137.423 229.932 134.57C226.556 138.701 222.569 142.175 217.972 144.993C213.953 147.249 210.047 147.094 206.255 144.529C204.734 142.544 203.92 140.306 203.814 137.813C204.281 135.01 204.687 132.231 205.035 129.474C199.181 135.343 192.753 140.515 185.752 144.993C180.948 147.814 175.74 149.436 170.13 149.857C160.788 148.943 155.826 144.002 155.241 135.033C155.449 124.363 158.541 114.481 164.516 105.386C168.586 98.5908 173.874 92.8004 180.382 88.0147C186.373 84.4103 192.557 84.1013 198.933 87.0882C202.306 90.3939 203.527 94.3314 202.594 98.9007C202.368 102.949 200.822 106.424 197.956 109.324C190.193 111.076 188.16 108.683 191.854 102.143C192.83 99.5182 192.83 96.8935 191.854 94.2684C191.462 93.6643 190.892 93.3554 190.145 93.3419C186.752 94.6093 183.904 96.6165 181.602 99.364C176.534 106.651 172.304 114.372 168.91 122.526C165.004 139.381 170.618 143.319 185.752 134.338C188.214 132.155 190.818 130.148 193.563 128.316C200.007 122.047 206.272 115.639 212.358 109.092C216.517 99.6438 220.342 90.0701 223.83 80.3713C219.166 80.3422 214.528 80.6511 209.917 81.2978C204.48 80.6317 202.934 77.9296 205.279 73.1912C206.677 72.5431 208.141 72.0799 209.673 71.8015C216.164 70.8 222.673 69.9509 229.2 69.2537C232.757 59.8222 236.744 50.5575 241.16 41.4596C241.967 41.0429 242.699 40.5797 243.357 40.0699ZM284.852 89.636C285.338 89.5962 285.745 89.7509 286.072 90.0993C286.755 91.4255 287.244 92.8152 287.537 94.2684C287.874 97.833 287.793 101.384 287.293 104.923C285.394 105.028 283.522 104.874 281.679 104.46C280.759 103.768 280.27 102.842 280.214 101.68C279.788 96.9473 281.334 92.9324 284.852 89.636ZM272.159 108.629C273.394 110.338 275.021 111.65 277.041 112.566C279.809 113.107 282.576 113.647 285.34 114.188C282.428 121.808 277.871 128.371 271.671 133.875C269.666 135.844 267.632 135.921 265.569 134.107C264.689 128.06 265.503 122.193 268.01 116.504C269.4 113.866 270.783 111.241 272.159 108.629Z" fill="currentColor"/>
<path opacity="0.81" fill-rule="evenodd" clip-rule="evenodd" d="M166.733 62.0246C170 62.5909 171.08 65.3303 170.394 68.5099C168.962 71.936 166.765 74.7928 163.804 77.0798C158.964 79.1475 155.12 76.2515 156.725 70.3629C158.156 67.4305 159.502 65.6475 161.851 63.646C163.45 62.8622 164.347 61.8267 166.733 62.0246Z" fill="#9247FB"/>
<path opacity="0.913" fill-rule="evenodd" clip-rule="evenodd" d="M80.7936 99.364C87.1766 96.6724 91.7648 95.5862 96.9034 93.3419C96.1624 96.1524 95.2671 98.9318 94.2185 101.68C92.5704 108.32 91.5125 115.037 91.0453 121.831C90.9506 128.2 92.9033 133.913 96.9034 138.971C99.8808 141.569 103.298 142.341 107.155 141.287C108.89 140.641 110.544 139.909 112.037 138.971C113.615 137.979 115.032 137.092 116.431 135.728C122.217 128.896 124.25 125.832 129.204 118.458C129.8 117.57 132.052 113.956 132.052 113.956C136.07 108.133 139.894 102.188 143.524 96.1213C147.423 89.3419 145.739 92.2351 149.651 85.4265C151.568 83.1103 152.299 83.3358 154.228 83C155.502 83.0259 157.11 84.0995 157.95 85C158.311 86.7422 158.148 87.9409 157.462 89.5956C148.904 107.235 144.567 114.378 133.273 130.401C129.766 134.652 126.104 138.744 122.289 142.676C116.395 148.096 109.316 151.107 101.053 151.71C95.8968 151.54 91.2591 149.996 87.1399 147.077C82.7775 143.124 79.93 138.337 78.5968 132.717C77.4403 127.207 77.1147 121.648 77.6204 116.04C78.6485 110.469 79.7059 104.91 80.7936 99.364Z" fill="#9247FB"/>
<path opacity="0.99" fill-rule="evenodd" clip-rule="evenodd" d="M63.7073 95.6581C61.9409 99.849 60.8329 101.912 58.9487 105.453C57.872 105.962 57.872 105.962 55.9878 106.472C53.2961 106.726 46.8859 107.836 44.6427 107.588C42.1044 106.598 41.6163 105.054 43.1782 102.956C47.4102 100.87 57.3527 98.8448 61.9409 96.6724C62.8585 96.2379 63.1571 95.9462 63.7073 95.6581Z" fill="#4FAAFF"/>
</svg>
