<svg width="1087" height="585" viewBox="0 0 1087 585" fill="none" xmlns="http://www.w3.org/2000/svg">
<path fill-rule="evenodd" clip-rule="evenodd" d="M300.097 288.915C284.181 295.862 266.42 302.586 250.206 307.555C238.525 310.61 226.934 313.955 215.435 317.592C221.642 305.546 227.494 294.56 234.078 283.574C236.272 282.887 237.686 282.28 239.93 281.514C248.833 278.473 290.741 258.07 298.5 253.5C335 232 337.5 231.5 358 218.5C376.751 206.609 421.337 168.59 427 163.5C466.5 128 478.225 97 476.5 72.5C474.473 43.7096 432 26.5 347 39.5C336.909 40.0586 300.059 47.5434 286.5 52C215 75.5 173.694 87.6476 127.5 139.5C119.482 148.5 114.643 158.873 109.5 169.908C104.357 180.943 103.5 192.5 111 204.5C116 212.5 124 218.5 137.576 222.959C137.983 226.945 136.219 230.051 132.284 232.279C110.815 236.006 92.9253 230.032 78.6147 214.356C69.4295 200.771 66.4058 185.955 69.5438 169.908C78.7113 140.325 94.8373 114.994 117.922 93.9152C187.404 31.4595 318.152 -3.24783 414.467 3.28868C481.562 7.84216 516.319 39.3898 513.5 84.5C509.5 148.5 451 189.459 411.5 222.959C397.632 234.721 321.857 279.417 300.097 288.915Z" fill="#4FAAFF"/>
<path opacity="0.913" fill-rule="evenodd" clip-rule="evenodd" d="M323 239C319 241.5 317.367 242.656 309 247.5C299.5 253 295.751 255.357 272.404 268.501C281.21 241.768 287.928 217.154 295.751 190.357C275.622 216.166 256.83 245.488 240.008 275.476C239.276 276.849 231.997 287.8 227.62 296.085C224.068 302.809 219.715 311.36 216.781 317.262C203.651 343.673 188.949 370.289 175.371 396.452C156.988 429.416 137.838 461.915 117.922 493.953C105.875 509.213 93.7805 524.507 81.6384 539.835C67.3329 553.432 56.325 564.402 34.016 574.964C25.6784 577.913 12.5271 580.131 3.73057 579.093C1.03558 577.563 0.279669 575.413 1.46284 572.641C28.1197 555.006 55.3815 532.237 74.0793 506.857C83.6541 492.519 93.2291 478.18 102.804 463.842C128.325 419.244 149.596 381.68 174.973 337.381C181.635 325.752 190.385 307.976 197.293 296.085C205.473 282.003 240.309 225.071 247.75 210.476C286.461 151.667 295.105 140.833 331.365 92.8571C337.515 84.7199 344.066 76.8339 351.019 69.199C362.031 63.1755 367.373 69.199 367.373 78.8603C367.373 83.5714 366.439 89.0336 365.431 92.8571C344.907 143.36 343.753 156.31 331.365 207.381C329.202 213.297 324.869 232.968 323 239Z" fill="#9247FB"/>
<path opacity="0.999" fill-rule="evenodd" clip-rule="evenodd" d="M756.483 123.809C769.807 123.308 777.366 129.282 779.161 141.732C772.801 163.651 765.241 185.158 756.483 206.254C776.116 205.04 795.77 204.084 815.445 203.387C827.408 205.348 831.187 211.8 826.783 222.743C822.367 227.894 817.076 231.956 810.909 234.931C787.403 239.168 763.718 242.275 739.853 244.251C723.639 285.358 707.262 326.462 690.719 367.559C686.184 381.42 681.648 395.28 677.113 409.14C676.104 412.008 676.104 414.876 677.113 417.743C677.739 418.399 678.495 418.877 679.381 419.177C687.869 413.281 695.68 406.591 702.814 399.104C713.985 385.163 724.567 370.824 734.562 356.089C745.636 331.285 756.722 306.431 767.822 281.53C774.464 267.742 785.299 263.203 800.326 267.909C803.796 271.558 805.813 275.859 806.374 280.813C793.83 308.672 781.483 336.632 769.334 364.692C762.78 381.188 756.985 397.916 751.948 414.876C754.498 416.407 757.019 416.168 759.507 414.159C771.086 403.867 781.416 392.634 790.499 380.464C796.069 364.146 802.116 347.896 808.641 331.714C817.851 313.431 830.449 297.659 846.437 284.398C854.811 267.838 868.417 257.802 887.256 254.287C903.895 256.209 914.478 264.812 919.004 280.096C921.745 289.482 923.006 299.041 922.784 308.773C926.235 308.618 929.259 307.423 931.855 305.188C947.552 292.707 960.403 278.129 970.406 261.457C981.526 255.247 991.605 256.68 1000.64 265.758C1003.16 273.491 1002.65 281.139 999.131 288.699C997.277 293.649 995.01 298.428 992.328 303.037C992.831 303.515 993.336 303.994 993.84 304.471C1009.24 286.762 1026.37 270.751 1045.24 256.438C1077 250.73 1088.34 262.918 1079.26 293.001C1065.26 326.619 1052.16 360.554 1039.95 394.802C1038.94 400.537 1038.94 406.273 1039.95 412.008C1043.25 416.086 1046.52 420.149 1049.78 424.196C1040.3 437.544 1027.7 441.367 1011.98 435.666C1005.7 429.498 1003.18 422.089 1004.42 413.442C1005.03 401.223 1007.3 389.275 1011.23 377.596C1018.98 355.042 1027.05 332.578 1035.41 310.207C1036.42 307.339 1036.42 304.471 1035.41 301.604C1009.9 324.188 988.734 349.997 971.918 379.03C963.14 398.745 954.07 418.34 944.705 437.817C933.163 447.521 922.076 447.043 911.445 436.383C910.437 432.559 910.437 428.736 911.445 424.912C924.184 389.349 937.538 354.46 951.509 320.243C941.713 330.026 930.878 338.629 919.004 346.052C909.45 380.209 891.56 409.602 865.335 434.232C855.224 442.97 843.381 448.466 829.807 450.721C809.928 448.344 796.574 438.307 789.744 420.611C778.916 433.871 765.309 443.67 748.924 450.004C736.66 454.818 726.834 452.188 719.444 442.118C716.579 433.745 715.067 425.142 714.908 416.309C704.454 429.095 692.107 439.849 677.869 448.57C665.423 455.553 653.329 455.076 641.585 447.137C636.873 440.993 634.352 434.063 634.026 426.346C635.47 417.672 636.729 409.069 637.805 400.537C619.676 418.701 599.77 434.713 578.088 448.57C563.211 457.304 547.084 462.322 529.71 463.626C500.78 460.798 485.411 445.505 483.6 417.743C484.245 384.718 493.821 354.129 512.324 325.979C524.927 304.946 541.304 287.023 561.458 272.21C580.013 261.054 599.163 260.097 618.908 269.343C629.356 279.574 633.135 291.762 630.246 305.905C629.548 318.437 624.76 329.19 615.884 338.166C591.843 343.592 585.545 336.183 596.986 315.942C600.01 307.816 600.01 299.692 596.986 291.567C595.771 289.697 594.006 288.741 591.695 288.699C581.186 292.622 572.366 298.835 565.238 307.339C549.542 329.894 536.441 353.792 525.931 379.03C513.836 431.201 531.222 443.389 578.088 415.593C585.713 408.836 593.777 402.624 602.278 396.953C622.235 377.549 641.636 357.715 660.483 337.449C673.365 308.205 685.209 278.572 696.011 248.552C681.568 248.462 667.206 249.418 652.924 251.42C636.087 249.358 631.299 240.994 638.561 226.328C642.89 224.322 647.425 222.888 652.168 222.026C672.27 218.926 692.428 216.298 712.641 214.14C723.657 184.948 736.003 156.271 749.68 128.111C752.178 126.821 754.446 125.388 756.483 123.809ZM884.988 277.229C886.494 277.105 887.753 277.584 888.768 278.662C890.883 282.767 892.395 287.069 893.303 291.567C894.348 302.6 894.097 313.592 892.547 324.545C886.666 324.872 880.87 324.393 875.161 323.111C872.312 320.972 870.8 318.104 870.626 314.508C869.305 299.859 874.093 287.432 884.988 277.229ZM845.681 336.015C849.504 341.305 854.543 345.367 860.799 348.203C869.371 349.876 877.939 351.549 886.5 353.221C877.481 376.809 863.369 397.122 844.169 414.159C837.96 420.252 831.66 420.492 825.271 414.876C822.546 396.161 825.066 377.999 832.83 360.39C837.135 352.228 841.418 344.102 845.681 336.015Z" fill="black"/>
<path opacity="0.81" fill-rule="evenodd" clip-rule="evenodd" d="M516.349 191.981C526.466 193.734 529.81 202.213 527.688 212.055C523.251 222.659 516.447 231.501 507.278 238.58C492.289 244.98 480.386 236.017 485.357 217.79C489.788 208.713 493.956 203.195 501.231 196.999C506.184 194.573 508.961 191.368 516.349 191.981Z" fill="#9247FB"/>
<path opacity="0.913" fill-rule="evenodd" clip-rule="evenodd" d="M267.125 301.854C286.893 293.523 299.586 287.447 315.5 280.5C313.205 289.199 311.235 298.817 308.701 309.023C303.597 329.574 300.321 350.365 298.874 371.394C298.58 391.108 304.628 408.793 317.016 424.446C326.72 431.786 329.817 431.786 342.204 430.238C347.578 428.239 348.419 427.351 353.043 424.446C358.425 421.064 359.55 418.983 363.882 414.762C381.802 393.616 384.786 389.479 400.126 366.655C401.972 363.908 408.947 352.721 408.947 352.721C421.389 334.697 433.233 316.297 444.475 297.518C456.548 276.534 451.333 285.49 463.448 264.415C469.386 257.246 471.649 257.944 477.621 256.905C481.568 256.985 486.546 260.308 489.149 263.095C490.265 268.488 489.762 272.198 487.638 277.32C461.134 331.918 447.702 354.028 412.726 403.621C401.865 416.779 392.731 428.898 380.915 441.071C362.663 457.847 355.457 462.012 329.866 463.876C313.898 463.35 299.536 458.571 286.779 449.538C273.27 437.303 264.451 422.486 260.322 405.089C256.741 388.034 255.732 370.828 257.299 353.472C260.483 336.227 263.757 319.021 267.125 301.854Z" fill="#9247FB"/>
<path opacity="0.99" fill-rule="evenodd" clip-rule="evenodd" d="M197.293 296.085C191.823 309.057 187.002 315.587 181.167 326.548C177.832 328.124 179.222 327.978 173.387 329.555C165.051 330.344 145.199 333.778 138.253 333.011C130.392 329.945 128.88 325.166 133.717 318.672C146.823 312.217 177.614 305.948 191.823 299.224C194.665 297.879 195.589 296.976 197.293 296.085Z" fill="#4FAAFF"/>
</svg>
